<svg id="visual" viewBox="0 0 540 960" width="540" height="960" xmlns="http://www.w3.org/2000/svg" xmlns:xlink="http://www.w3.org/1999/xlink" version="1.1"><rect x="0" y="0" width="540" height="960" fill="#001220"></rect><defs><linearGradient id="grad1_0" x1="0%" y1="0%" x2="100%" y2="100%"><stop offset="30%" stop-color="#fbae3c" stop-opacity="1"></stop><stop offset="70%" stop-color="#fbae3c" stop-opacity="1"></stop></linearGradient></defs><defs><linearGradient id="grad1_1" x1="0%" y1="0%" x2="100%" y2="100%"><stop offset="30%" stop-color="#fbae3c" stop-opacity="1"></stop><stop offset="70%" stop-color="#e1685e" stop-opacity="1"></stop></linearGradient></defs><defs><linearGradient id="grad1_2" x1="0%" y1="0%" x2="100%" y2="100%"><stop offset="30%" stop-color="#96446e" stop-opacity="1"></stop><stop offset="70%" stop-color="#e1685e" stop-opacity="1"></stop></linearGradient></defs><defs><linearGradient id="grad1_3" x1="0%" y1="0%" x2="100%" y2="100%"><stop offset="30%" stop-color="#96446e" stop-opacity="1"></stop><stop offset="70%" stop-color="#3d3056" stop-opacity="1"></stop></linearGradient></defs><defs><linearGradient id="grad1_4" x1="0%" y1="0%" x2="100%" y2="100%"><stop offset="30%" stop-color="#001220" stop-opacity="1"></stop><stop offset="70%" stop-color="#3d3056" stop-opacity="1"></stop></linearGradient></defs><defs><linearGradient id="grad2_0" x1="0%" y1="0%" x2="100%" y2="100%"><stop offset="30%" stop-color="#fbae3c" stop-opacity="1"></stop><stop offset="70%" stop-color="#fbae3c" stop-opacity="1"></stop></linearGradient></defs><defs><linearGradient id="grad2_1" x1="0%" y1="0%" x2="100%" y2="100%"><stop offset="30%" stop-color="#e1685e" stop-opacity="1"></stop><stop offset="70%" stop-color="#fbae3c" stop-opacity="1"></stop></linearGradient></defs><defs><linearGradient id="grad2_2" x1="0%" y1="0%" x2="100%" y2="100%"><stop offset="30%" stop-color="#e1685e" stop-opacity="1"></stop><stop offset="70%" stop-color="#96446e" stop-opacity="1"></stop></linearGradient></defs><defs><linearGradient id="grad2_3" x1="0%" y1="0%" x2="100%" y2="100%"><stop offset="30%" stop-color="#3d3056" stop-opacity="1"></stop><stop offset="70%" stop-color="#96446e" stop-opacity="1"></stop></linearGradient></defs><defs><linearGradient id="grad2_4" x1="0%" y1="0%" x2="100%" y2="100%"><stop offset="30%" stop-color="#3d3056" stop-opacity="1"></stop><stop offset="70%" stop-color="#001220" stop-opacity="1"></stop></linearGradient></defs><g transform="translate(540, 0)"><path d="M0 405C-36.3 403.8 -72.5 402.5 -104.8 391.2C-137.1 379.9 -165.5 358.4 -197 341.2C-228.5 324 -263.1 311 -285 285C-306.9 258.9 -316.1 219.9 -321.3 185.5C-326.5 151.1 -327.7 121.5 -341 91.4C-354.3 61.2 -379.6 30.6 -405 0L0 0Z" fill="#18223c"></path><path d="M0 324C-29 323 -58 322 -83.9 313C-109.7 303.9 -132.4 286.7 -157.6 273C-182.8 259.2 -210.4 248.8 -228 228C-245.5 207.1 -252.9 175.9 -257 148.4C-261.2 120.9 -262.2 97.2 -272.8 73.1C-283.4 49 -303.7 24.5 -324 0L0 0Z" fill="#683a67"></path><path d="M0 243C-21.8 242.3 -43.5 241.5 -62.9 234.7C-82.3 227.9 -99.3 215.1 -118.2 204.7C-137.1 194.4 -157.8 186.6 -171 171C-184.1 155.4 -189.7 131.9 -192.8 111.3C-195.9 90.7 -196.6 72.9 -204.6 54.8C-212.6 36.7 -227.8 18.4 -243 0L0 0Z" fill="#c0526a"></path><path d="M0 162C-14.5 161.5 -29 161 -41.9 156.5C-54.9 151.9 -66.2 143.4 -78.8 136.5C-91.4 129.6 -105.2 124.4 -114 114C-122.7 103.6 -126.4 87.9 -128.5 74.2C-130.6 60.5 -131.1 48.6 -136.4 36.5C-141.7 24.5 -151.9 12.2 -162 0L0 0Z" fill="#f6884d"></path><path d="M0 81C-7.3 80.8 -14.5 80.5 -21 78.2C-27.4 76 -33.1 71.7 -39.4 68.2C-45.7 64.8 -52.6 62.2 -57 57C-61.4 51.8 -63.2 44 -64.3 37.1C-65.3 30.2 -65.5 24.3 -68.2 18.3C-70.9 12.2 -75.9 6.1 -81 0L0 0Z" fill="#fbae3c"></path></g><g transform="translate(0, 960)"><path d="M0 -405C29.6 -380.5 59.1 -355.9 94 -350.6C128.8 -345.4 168.9 -359.4 202.5 -350.7C236.1 -342.1 263.1 -310.9 277.2 -277.2C291.3 -243.5 292.4 -207.2 310 -179C327.7 -150.8 362 -130.5 380.6 -102C399.2 -73.5 402.1 -36.7 405 0L0 0Z" fill="#18223c"></path><path d="M0 -324C23.6 -304.4 47.3 -284.7 75.2 -280.5C103 -276.3 135.1 -287.5 162 -280.6C188.9 -273.7 210.5 -248.7 221.7 -221.7C233 -194.8 233.9 -165.8 248 -143.2C262.2 -120.6 289.6 -104.4 304.5 -81.6C319.3 -58.8 321.7 -29.4 324 0L0 0Z" fill="#683a67"></path><path d="M0 -243C17.7 -228.3 35.5 -213.5 56.4 -210.4C77.3 -207.2 101.4 -215.6 121.5 -210.4C141.6 -205.3 157.9 -186.5 166.3 -166.3C174.8 -146.1 175.4 -124.3 186 -107.4C196.6 -90.5 217.2 -78.3 228.3 -61.2C239.5 -44.1 241.2 -22 243 0L0 0Z" fill="#c0526a"></path><path d="M0 -162C11.8 -152.2 23.6 -142.4 37.6 -140.3C51.5 -138.1 67.6 -143.7 81 -140.3C94.4 -136.9 105.2 -124.4 110.9 -110.9C116.5 -97.4 116.9 -82.9 124 -71.6C131.1 -60.3 144.8 -52.2 152.2 -40.8C159.7 -29.4 160.8 -14.7 162 0L0 0Z" fill="#f6884d"></path><path d="M0 -81C5.9 -76.1 11.8 -71.2 18.8 -70.1C25.8 -69.1 33.8 -71.9 40.5 -70.1C47.2 -68.4 52.6 -62.2 55.4 -55.4C58.3 -48.7 58.5 -41.4 62 -35.8C65.5 -30.2 72.4 -26.1 76.1 -20.4C79.8 -14.7 80.4 -7.3 81 0L0 0Z" fill="#fbae3c"></path></g></svg>